<?xml version="1.0" encoding="UTF-8"?><svg xmlns="http://www.w3.org/2000/svg" xmlns:xlink="http://www.w3.org/1999/xlink" contentScriptType="text/ecmascript" width="1440pt" zoomAndPan="magnify" contentStyleType="text/css" viewBox="0 0 1440 809.999993" height="809.999993pt" preserveAspectRatio="xMidYMid meet" version="1.2"><defs><clipPath xml:id="clip1" id="clip1"><path d="M 0 0 L 305.578125 0 L 305.578125 280.160156 L 0 280.160156 Z M 0 0 "/></clipPath><clipPath xml:id="clip2" id="clip2"><path d="M 0 0 L 523.363281 0 L 523.363281 429.75 L 0 429.75 Z M 0 0 "/></clipPath><clipPath xml:id="clip3" id="clip3"><path d="M 0 0 L 972 0 L 972 787.5 L 0 787.5 Z M 0 0 "/></clipPath><clipPath xml:id="clip4" id="clip4"><path d="M 1246.605469 651.285156 L 1440 651.285156 L 1440 810 L 1246.605469 810 Z M 1246.605469 651.285156 "/></clipPath><clipPath xml:id="clip5" id="clip5"><path d="M 0 0.519531 L 1440 0.519531 L 1440 810 L 0 810 Z M 0 0.519531 "/></clipPath><clipPath xml:id="clip6" id="clip6"><path d="M 989.238281 444.738281 L 1439.988281 444.738281 L 1439.988281 809.988281 L 989.238281 809.988281 Z M 989.238281 444.738281 "/></clipPath></defs><g xml:id="surface1" id="surface1"><rect x="0" width="1440" y="0" height="809.999993" style="fill:rgb(100%,100%,100%);fill-opacity:1;stroke:none;"/><rect x="0" width="1440" y="0" height="809.999993" style="fill:rgb(100%,100%,100%);fill-opacity:1;stroke:none;"/><rect x="0" width="1440" y="0" height="809.999993" style="fill:rgb(100%,8.628845%,8.628845%);fill-opacity:1;stroke:none;"/><path style=" stroke:none;fill-rule:nonzero;fill:rgb(49.409485%,85.099792%,34.118652%);fill-opacity:1;" d="M 303.128906 -41.644531 C 149.085938 52.726562 127.097656 16.234375 85.84375 108.015625 C 43.492188 202.210938 -91.902344 148.195312 -91.902344 277.964844 L -91.902344 103.976562 C -91.902344 87.507812 -82.289062 72.53125 -67.28125 65.726562 C -43.976562 55.1875 -22.824219 40.253906 -10.140625 11.972656 C -7.417969 5.914062 -4.785156 0.425781 -2.152344 -4.625 C 9.65625 -27.417969 33.265625 -41.644531 58.941406 -41.644531 Z M 303.128906 -41.644531 "/><g clip-rule="nonzero" clip-path="url(#clip1)"><path style="fill:none;stroke-width:10;stroke-linecap:butt;stroke-linejoin:round;stroke:rgb(95.289612%,96.469116%,90.19928%);stroke-opacity:1;stroke-miterlimit:10;" d="M 905.100219 5.001616 C 554.103688 219.899749 504.002015 136.801179 410.002411 345.801822 C 313.50173 560.299672 4.996829 437.297421 4.996829 732.80348 L 4.996829 336.604228 C 4.996829 299.10224 26.901291 264.998202 61.097529 249.502836 C 114.198716 225.503699 162.395653 191.497508 191.296014 127.096561 C 197.499757 113.30017 203.498785 100.802472 209.497813 89.301033 C 236.404431 37.397783 290.199868 5.001616 348.70374 5.001616 Z M 905.100219 5.001616 " transform="matrix(0.438873,0,0,0.439143,-94.095318,-43.840958)"/></g><path style=" stroke:none;fill-rule:nonzero;fill:rgb(49.409485%,85.099792%,34.118652%);fill-opacity:1;" d="M 520.109375 2.914062 C 315.78125 128.085938 286.617188 79.683594 231.894531 201.417969 C 175.71875 326.359375 -3.871094 254.714844 -3.871094 426.835938 L -3.871094 196.0625 C -3.871094 174.21875 8.878906 154.355469 28.789062 145.328125 C 59.699219 131.347656 87.757812 111.542969 104.582031 74.03125 C 108.191406 65.996094 111.683594 58.714844 115.175781 52.015625 C 130.835938 21.785156 162.15625 2.914062 196.210938 2.914062 Z M 520.109375 2.914062 "/><g clip-rule="nonzero" clip-path="url(#clip2)"><path style="fill:none;stroke-width:10;stroke-linecap:butt;stroke-linejoin:round;stroke:rgb(95.289612%,96.469116%,90.19928%);stroke-opacity:1;stroke-miterlimit:10;" d="M 905.099844 5.002864 C 554.101354 219.899469 504.002808 136.801734 409.999256 345.796797 C 313.499499 560.297731 4.996869 437.297524 4.996869 732.797122 L 4.996869 336.602463 C 4.996869 299.100846 26.899045 264.999322 61.101066 249.501067 C 114.199083 225.499228 162.398635 191.498298 191.299577 127.097721 C 197.499826 113.302866 203.498767 100.802327 209.497709 89.301027 C 236.399004 37.400988 290.201595 5.002864 348.701343 5.002864 Z M 905.099844 5.002864 " transform="matrix(0.582134,0,0,0.582475,-6.77994,0.00002)"/></g><path style=" stroke:none;fill-rule:nonzero;fill:rgb(49.409485%,85.099792%,34.118652%);fill-opacity:1;" d="M 966.039062 5.335938 C 591.484375 234.714844 538.023438 146.015625 437.714844 369.09375 C 334.738281 598.042969 5.535156 466.757812 5.535156 782.164062 L 5.535156 359.273438 C 5.535156 319.25 28.902344 282.851562 65.398438 266.308594 C 122.0625 240.691406 173.496094 204.398438 204.335938 135.660156 C 210.953125 120.933594 217.355469 107.589844 223.757812 95.316406 C 252.460938 39.917969 309.875 5.335938 372.300781 5.335938 Z M 966.039062 5.335938 "/><g clip-rule="nonzero" clip-path="url(#clip3)"><path style="fill:none;stroke-width:10;stroke-linecap:butt;stroke-linejoin:round;stroke:rgb(95.289612%,96.469116%,90.19928%);stroke-opacity:1;stroke-miterlimit:10;" d="M 905.099603 4.999162 C 554.100547 219.901729 504.001752 136.80041 410.001536 345.799844 C 313.501138 560.299841 5.001499 437.300227 5.001499 732.800863 L 5.001499 336.599301 C 5.001499 299.101784 26.899131 265.00049 61.099996 249.501565 C 114.200473 225.501105 162.399423 191.498623 191.299759 127.098485 C 197.500793 113.301331 203.500496 100.799719 209.500198 89.300871 C 236.398192 37.398686 290.201501 4.999162 348.701344 4.999162 Z M 905.099603 4.999162 " transform="matrix(1.06711,0,0,1.067362,0.198006,0.00002)"/></g><path style=" stroke:none;fill-rule:nonzero;fill:rgb(49.409485%,85.099792%,34.118652%);fill-opacity:1;" d="M 1686.390625 653.714844 C 1515.875 758.136719 1491.535156 717.757812 1445.871094 819.3125 C 1398.992188 923.539062 1249.125 863.773438 1249.125 1007.359375 L 1249.125 814.84375 C 1249.125 796.621094 1259.761719 780.050781 1276.375 772.519531 C 1302.171875 760.859375 1325.589844 744.335938 1339.628906 713.046875 C 1342.640625 706.339844 1345.554688 700.265625 1348.46875 694.679688 C 1361.539062 669.460938 1387.671875 653.714844 1416.09375 653.714844 Z M 1686.390625 653.714844 "/><g clip-rule="nonzero" clip-path="url(#clip4)"><path style="fill:none;stroke-width:10;stroke-linecap:butt;stroke-linejoin:round;stroke:rgb(95.289612%,96.469116%,90.19928%);stroke-opacity:1;stroke-miterlimit:10;" d="M 905.100128 4.996494 C 554.09921 219.898748 503.996427 136.798172 409.998426 345.799698 C 313.499709 560.299995 5.002934 437.301174 5.002934 732.803831 L 5.002934 336.602923 C 5.002934 299.100341 26.898277 264.998315 61.096181 249.498856 C 114.198216 225.502027 162.40335 191.496471 191.302308 127.10297 C 197.501834 113.299769 203.500337 100.798909 209.498841 89.302941 C 236.403658 37.402262 290.19721 4.996494 348.702724 4.996494 Z M 905.100128 4.996494 " transform="matrix(0.485798,0,0,0.485904,1246.694584,651.287027)"/></g><path style=" stroke:none;fill-rule:nonzero;fill:rgb(49.409485%,85.099792%,34.118652%);fill-opacity:1;" d="M 1589.765625 9.339844 C 970.703125 388.355469 882.34375 241.792969 716.554688 610.402344 C 546.355469 988.714844 2.25 771.78125 2.25 1292.953125 L 2.25 594.179688 C 2.25 528.039062 40.875 467.898438 101.195312 440.5625 C 194.847656 398.230469 279.859375 338.265625 330.832031 224.683594 C 341.765625 200.347656 352.347656 178.300781 362.929688 158.019531 C 410.375 66.480469 505.261719 9.339844 608.4375 9.339844 Z M 1589.765625 9.339844 "/><g clip-rule="nonzero" clip-path="url(#clip5)"><path style="fill:none;stroke-width:10;stroke-linecap:butt;stroke-linejoin:round;stroke:rgb(95.289612%,96.469116%,90.19928%);stroke-opacity:1;stroke-miterlimit:10;" d="M 905.099491 5.000622 C 554.099373 219.899938 504.000794 136.799984 410.000624 345.799026 C 313.499954 560.299675 4.999465 437.299783 4.999465 732.800739 L 4.999465 336.600889 C 4.999465 299.099599 26.899321 265.000268 61.100128 249.500975 C 114.199748 225.498997 162.40025 191.499333 191.301061 127.099083 C 197.500262 113.30077 203.500131 100.80034 209.500001 89.301007 C 236.400856 37.398973 290.20035 5.000622 348.699631 5.000622 Z M 905.099491 5.000622 " transform="matrix(1.76371,0,0,1.763689,-6.567608,0.5203)"/></g><path style=" stroke:none;fill-rule:nonzero;fill:rgb(49.409485%,85.099792%,34.118652%);fill-opacity:1;" d="M 992.003906 807.511719 C 1165.699219 701.125 1190.492188 742.265625 1237.007812 638.800781 C 1284.761719 532.609375 1437.421875 593.503906 1437.421875 447.214844 L 1437.421875 643.355469 C 1437.421875 661.917969 1426.585938 678.800781 1409.660156 686.472656 C 1383.386719 698.355469 1359.53125 715.1875 1345.230469 747.066406 C 1342.164062 753.898438 1339.195312 760.085938 1336.226562 765.78125 C 1322.914062 791.472656 1296.289062 807.511719 1267.339844 807.511719 Z M 992.003906 807.511719 "/><g clip-rule="nonzero" clip-path="url(#clip6)"><path style="fill:none;stroke-width:10;stroke-linecap:butt;stroke-linejoin:round;stroke:rgb(95.289612%,96.469116%,90.19928%);stroke-opacity:1;stroke-miterlimit:10;" d="M 905.099203 5.003661 C 554.097523 219.903382 503.996149 136.79988 409.997858 345.797454 C 313.497261 560.302646 5.003206 437.296524 5.003206 732.798435 L 5.003206 336.597047 C 5.003206 299.10105 26.900356 264.997999 61.103798 249.500916 C 114.196887 225.497797 162.40377 191.497324 191.30264 127.102368 C 197.499202 113.301758 203.498421 100.803092 209.49764 89.298639 C 236.399402 37.402348 290.202925 5.003661 348.703205 5.003661 Z M 905.099203 5.003661 " transform="matrix(-0.494856,-0.000000000000000061,0.000000000000000061,-0.495053,1439.897742,809.988795)"/></g><path style="fill-rule:nonzero;fill:rgb(49.409485%,85.099792%,34.118652%);fill-opacity:1;stroke-width:10;stroke-linecap:butt;stroke-linejoin:round;stroke:rgb(95.289612%,96.469116%,90.19928%);stroke-opacity:1;stroke-miterlimit:10;" d="M 905.100609 5.001005 C 554.099834 219.898986 504.000576 136.80003 409.998792 345.799468 C 313.499772 560.298648 5.001463 437.301064 5.001463 732.800085 L 5.001463 336.599227 C 5.001463 299.099586 26.89864 265.000573 61.099651 249.499897 C 114.199919 225.500746 162.401524 191.50066 191.298998 127.098969 C 197.49882 113.298607 203.500841 100.799757 209.499771 89.299455 C 236.400693 37.399705 290.199445 5.001005 348.699059 5.001005 Z M 905.100609 5.001005 " transform="matrix(-1.263897,-0.000000000000000155,0.000000000000000155,-1.263554,1439.762742,871.237008)"/></g></svg>