<?xml version="1.0" encoding="UTF-8"?><svg xmlns="http://www.w3.org/2000/svg" xmlns:xlink="http://www.w3.org/1999/xlink" contentScriptType="text/ecmascript" width="1440pt" zoomAndPan="magnify" contentStyleType="text/css" viewBox="0 0 1440 809.999993" height="809.999993pt" preserveAspectRatio="xMidYMid meet" version="1.2"><defs><clipPath xml:id="clip1" id="clip1"><path d="M 0 0 L 305.578125 0 L 305.578125 280.160156 L 0 280.160156 Z M 0 0 "/></clipPath><clipPath xml:id="clip2" id="clip2"><path d="M 0 0 L 523.363281 0 L 523.363281 429.75 L 0 429.75 Z M 0 0 "/></clipPath><clipPath xml:id="clip3" id="clip3"><path d="M 1246.605469 651.285156 L 1440 651.285156 L 1440 810 L 1246.605469 810 Z M 1246.605469 651.285156 "/></clipPath><clipPath xml:id="clip4" id="clip4"><path d="M 617.324219 214.691406 L 1440 214.691406 L 1440 810 L 617.324219 810 Z M 617.324219 214.691406 "/></clipPath></defs><g xml:id="surface1" id="surface1"><rect x="0" width="1440" y="0" height="809.999993" style="fill:rgb(100%,100%,100%);fill-opacity:1;stroke:none;"/><rect x="0" width="1440" y="0" height="809.999993" style="fill:rgb(100%,100%,100%);fill-opacity:1;stroke:none;"/><rect x="0" width="1440" y="0" height="809.999993" style="fill:rgb(0%,29.019165%,67.83905%);fill-opacity:1;stroke:none;"/><path style=" stroke:none;fill-rule:nonzero;fill:rgb(49.409485%,85.099792%,34.118652%);fill-opacity:1;" d="M 303.128906 -41.644531 C 149.085938 52.726562 127.097656 16.234375 85.84375 108.015625 C 43.492188 202.210938 -91.902344 148.195312 -91.902344 277.964844 L -91.902344 103.976562 C -91.902344 87.507812 -82.289062 72.53125 -67.28125 65.726562 C -43.976562 55.1875 -22.824219 40.253906 -10.140625 11.972656 C -7.417969 5.914062 -4.785156 0.425781 -2.152344 -4.625 C 9.65625 -27.417969 33.265625 -41.644531 58.941406 -41.644531 Z M 303.128906 -41.644531 "/><g clip-rule="nonzero" clip-path="url(#clip1)"><path style="fill:none;stroke-width:10;stroke-linecap:butt;stroke-linejoin:round;stroke:rgb(95.289612%,96.469116%,90.19928%);stroke-opacity:1;stroke-miterlimit:10;" d="M 905.100219 5.001616 C 554.103688 219.899749 504.002015 136.801179 410.002411 345.801822 C 313.50173 560.299672 4.996829 437.297421 4.996829 732.80348 L 4.996829 336.604228 C 4.996829 299.10224 26.901291 264.998202 61.097529 249.502836 C 114.198716 225.503699 162.395653 191.497508 191.296014 127.096561 C 197.499757 113.30017 203.498785 100.802472 209.497813 89.301033 C 236.404431 37.397783 290.199868 5.001616 348.70374 5.001616 Z M 905.100219 5.001616 " transform="matrix(0.438873,0,0,0.439143,-94.095318,-43.840958)"/></g><path style=" stroke:none;fill-rule:nonzero;fill:rgb(49.409485%,85.099792%,34.118652%);fill-opacity:1;" d="M 520.109375 2.914062 C 315.78125 128.085938 286.617188 79.683594 231.894531 201.417969 C 175.71875 326.359375 -3.871094 254.714844 -3.871094 426.835938 L -3.871094 196.0625 C -3.871094 174.21875 8.878906 154.355469 28.789062 145.328125 C 59.699219 131.347656 87.757812 111.542969 104.582031 74.03125 C 108.191406 65.996094 111.683594 58.714844 115.175781 52.015625 C 130.835938 21.785156 162.15625 2.914062 196.210938 2.914062 Z M 520.109375 2.914062 "/><g clip-rule="nonzero" clip-path="url(#clip2)"><path style="fill:none;stroke-width:10;stroke-linecap:butt;stroke-linejoin:round;stroke:rgb(95.289612%,96.469116%,90.19928%);stroke-opacity:1;stroke-miterlimit:10;" d="M 905.099844 5.002864 C 554.101354 219.899469 504.002808 136.801734 409.999256 345.796797 C 313.499499 560.297731 4.996869 437.297524 4.996869 732.797122 L 4.996869 336.602463 C 4.996869 299.100846 26.899045 264.999322 61.101066 249.501067 C 114.199083 225.499228 162.398635 191.498298 191.299577 127.097721 C 197.499826 113.302866 203.498767 100.802327 209.497709 89.301027 C 236.399004 37.400988 290.201595 5.002864 348.701343 5.002864 Z M 905.099844 5.002864 " transform="matrix(0.582134,0,0,0.582475,-6.77994,0.00002)"/></g><path style="fill-rule:nonzero;fill:rgb(100%,56.858826%,30.198669%);fill-opacity:1;stroke-width:10;stroke-linecap:butt;stroke-linejoin:round;stroke:rgb(95.289612%,96.469116%,90.19928%);stroke-opacity:1;stroke-miterlimit:10;" d="M 905.098318 5.001437 C 554.101596 219.899936 503.999074 136.798311 409.999724 345.798375 C 313.499258 560.298993 5.000555 437.300908 5.000555 732.798561 L 5.000555 336.601702 C 5.000555 299.09952 26.900133 265.000281 61.099473 249.50031 C 114.19845 225.501705 162.399846 191.500191 191.300452 127.099049 C 197.499169 113.298805 203.499054 100.800404 209.498938 89.3002 C 236.400745 37.400949 290.20087 5.001437 348.699743 5.001437 Z M 905.098318 5.001437 " transform="matrix(1.119813,0,0,1.119206,0.205,0.00002)"/><path style=" stroke:none;fill-rule:nonzero;fill:rgb(49.409485%,85.099792%,34.118652%);fill-opacity:1;" d="M 1686.390625 653.714844 C 1515.875 758.136719 1491.535156 717.757812 1445.871094 819.3125 C 1398.992188 923.539062 1249.125 863.773438 1249.125 1007.359375 L 1249.125 814.84375 C 1249.125 796.621094 1259.761719 780.050781 1276.375 772.519531 C 1302.171875 760.859375 1325.589844 744.335938 1339.628906 713.046875 C 1342.640625 706.339844 1345.554688 700.265625 1348.46875 694.679688 C 1361.539062 669.460938 1387.671875 653.714844 1416.09375 653.714844 Z M 1686.390625 653.714844 "/><g clip-rule="nonzero" clip-path="url(#clip3)"><path style="fill:none;stroke-width:10;stroke-linecap:butt;stroke-linejoin:round;stroke:rgb(95.289612%,96.469116%,90.19928%);stroke-opacity:1;stroke-miterlimit:10;" d="M 905.100128 4.996494 C 554.09921 219.898748 503.996427 136.798172 409.998426 345.799698 C 313.499709 560.299995 5.002934 437.301174 5.002934 732.803831 L 5.002934 336.602923 C 5.002934 299.100341 26.898277 264.998315 61.096181 249.498856 C 114.198216 225.502027 162.40335 191.496471 191.302308 127.10297 C 197.501834 113.299769 203.500337 100.798909 209.498841 89.302941 C 236.403658 37.402262 290.19721 4.996494 348.702724 4.996494 Z M 905.100128 4.996494 " transform="matrix(0.485798,0,0,0.485904,1246.694584,651.287027)"/></g><path style=" stroke:none;fill-rule:nonzero;fill:rgb(100%,56.858826%,30.198669%);fill-opacity:1;" d="M 2213.976562 223.511719 C 1594.917969 602.527344 1506.554688 455.964844 1340.765625 824.578125 C 1170.566406 1202.886719 626.464844 985.953125 626.464844 1507.125 L 626.464844 808.351562 C 626.464844 742.210938 665.089844 682.070312 725.40625 654.734375 C 819.058594 612.40625 904.070312 552.4375 955.042969 438.859375 C 965.976562 414.519531 976.558594 392.472656 987.140625 372.191406 C 1034.585938 280.65625 1129.472656 223.511719 1232.648438 223.511719 Z M 2213.976562 223.511719 "/><g clip-rule="nonzero" clip-path="url(#clip4)"><path style="fill:none;stroke-width:10;stroke-linecap:butt;stroke-linejoin:round;stroke:rgb(95.289612%,96.469116%,90.19928%);stroke-opacity:1;stroke-miterlimit:10;" d="M 905.098903 5.00027 C 554.100999 219.899586 504.000206 136.799632 410.000036 345.800889 C 313.499366 560.299323 5.001092 437.299431 5.001092 732.800387 L 5.001092 336.600537 C 5.001092 299.099246 26.900948 264.999915 61.099539 249.500622 C 114.19916 225.500859 162.399662 191.498981 191.300473 127.100946 C 197.499674 113.300418 203.499543 100.799988 209.499413 89.300655 C 236.400267 37.400836 290.199762 5.00027 348.699043 5.00027 Z M 905.098903 5.00027 " transform="matrix(1.76371,0,0,1.763689,617.644367,214.692796)"/></g></g></svg>