<?xml version="1.0" encoding="UTF-8"?><svg xmlns="http://www.w3.org/2000/svg" xmlns:xlink="http://www.w3.org/1999/xlink" contentScriptType="text/ecmascript" width="1440pt" zoomAndPan="magnify" contentStyleType="text/css" viewBox="0 0 1440 809.999993" height="809.999993pt" preserveAspectRatio="xMidYMid meet" version="1.2"><defs><clipPath xml:id="clip1" id="clip1"><path d="M 0 0 L 305.578125 0 L 305.578125 280.160156 L 0 280.160156 Z M 0 0 "/></clipPath><clipPath xml:id="clip2" id="clip2"><path d="M 0 0 L 511.460938 0 L 511.460938 405.363281 L 0 405.363281 Z M 0 0 "/></clipPath><clipPath xml:id="clip3" id="clip3"><path d="M 0 0 L 884 0 L 884 716.25 L 0 716.25 Z M 0 0 "/></clipPath><clipPath xml:id="clip4" id="clip4"><path d="M 1246.605469 685.585938 L 1440 685.585938 L 1440 810 L 1246.605469 810 Z M 1246.605469 685.585938 "/></clipPath><clipPath xml:id="clip5" id="clip5"><path d="M 1012.347656 477.039062 L 1440 477.039062 L 1440 810 L 1012.347656 810 Z M 1012.347656 477.039062 "/></clipPath><clipPath xml:id="clip6" id="clip6"><path d="M 0 0 L 1439.992188 0 L 1439.992188 810 L 0 810 Z M 0 0 "/></clipPath><clipPath xml:id="clip7" id="clip7"><path d="M 616.355469 137.25 L 1440 137.25 L 1440 810 L 616.355469 810 Z M 616.355469 137.25 "/></clipPath></defs><g xml:id="surface1" id="surface1"><rect x="0" width="1440" y="0" height="809.999993" style="fill:rgb(100%,100%,100%);fill-opacity:1;stroke:none;"/><rect x="0" width="1440" y="0" height="809.999993" style="fill:rgb(100%,100%,100%);fill-opacity:1;stroke:none;"/><rect x="0" width="1440" y="0" height="809.999993" style="fill:rgb(100%,100%,100%);fill-opacity:1;stroke:none;"/><path style=" stroke:none;fill-rule:nonzero;fill:rgb(100%,8.628845%,8.628845%);fill-opacity:1;" d="M 303.128906 -41.644531 C 149.085938 52.726562 127.097656 16.234375 85.84375 108.015625 C 43.492188 202.210938 -91.902344 148.195312 -91.902344 277.964844 L -91.902344 103.976562 C -91.902344 87.507812 -82.289062 72.53125 -67.28125 65.726562 C -43.976562 55.1875 -22.824219 40.253906 -10.140625 11.972656 C -7.417969 5.914062 -4.785156 0.425781 -2.152344 -4.625 C 9.65625 -27.417969 33.265625 -41.644531 58.941406 -41.644531 Z M 303.128906 -41.644531 "/><g clip-rule="nonzero" clip-path="url(#clip1)"><path style="fill:none;stroke-width:10;stroke-linecap:butt;stroke-linejoin:round;stroke:rgb(95.289612%,96.469116%,90.19928%);stroke-opacity:1;stroke-miterlimit:10;" d="M 905.100219 5.001616 C 554.103688 219.899749 504.002015 136.801179 410.002411 345.801822 C 313.50173 560.299672 4.996829 437.297421 4.996829 732.80348 L 4.996829 336.604228 C 4.996829 299.10224 26.901291 264.998202 61.097529 249.502836 C 114.198716 225.503699 162.395653 191.497508 191.296014 127.096561 C 197.499757 113.30017 203.498785 100.802472 209.497813 89.301033 C 236.404431 37.397783 290.199868 5.001616 348.70374 5.001616 Z M 905.100219 5.001616 " transform="matrix(0.438873,0,0,0.439143,-94.095318,-43.840958)"/></g><path style=" stroke:none;fill-rule:nonzero;fill:rgb(100%,56.858826%,30.198669%);fill-opacity:1;" d="M 508.207031 -21.472656 C 303.878906 103.699219 274.714844 55.296875 219.996094 177.035156 C 163.820312 301.976562 -15.769531 230.332031 -15.769531 402.453125 L -15.769531 171.675781 C -15.769531 149.832031 -3.019531 129.96875 16.886719 120.941406 C 47.800781 106.960938 75.859375 87.160156 92.683594 49.648438 C 96.289062 41.609375 99.785156 34.328125 103.277344 27.628906 C 118.9375 -2.601562 150.253906 -21.472656 184.308594 -21.472656 Z M 508.207031 -21.472656 "/><g clip-rule="nonzero" clip-path="url(#clip2)"><path style="fill:none;stroke-width:10;stroke-linecap:butt;stroke-linejoin:round;stroke:rgb(95.289612%,96.469116%,90.19928%);stroke-opacity:1;stroke-miterlimit:10;" d="M 905.096695 5.000907 C 554.098205 219.897512 503.99966 136.799776 410.002817 345.801546 C 313.50306 560.30248 5.00043 437.302273 5.00043 732.801871 L 5.00043 336.600505 C 5.00043 299.098888 26.902607 264.997364 61.097918 249.49911 C 114.202644 225.497271 162.402196 191.503047 191.303138 127.10247 C 197.496677 113.300909 203.502329 100.80037 209.501271 89.299069 C 236.402566 37.399031 290.198446 5.000907 348.698194 5.000907 Z M 905.096695 5.000907 " transform="matrix(0.582134,0,0,0.582475,-18.680451,-24.385559)"/></g><path style=" stroke:none;fill-rule:nonzero;fill:rgb(49.409485%,85.099792%,34.118652%);fill-opacity:1;" d="M 878.835938 4.855469 C 538.085938 213.476562 489.449219 132.804688 398.195312 335.699219 C 304.515625 543.933594 5.027344 424.527344 5.027344 711.394531 L 5.027344 326.769531 C 5.027344 290.363281 26.289062 257.261719 59.488281 242.210938 C 111.039062 218.914062 157.828125 185.90625 185.886719 123.386719 C 191.902344 109.992188 197.730469 97.855469 203.554688 86.691406 C 229.667969 36.308594 281.894531 4.855469 338.6875 4.855469 Z M 878.835938 4.855469 "/><g clip-rule="nonzero" clip-path="url(#clip3)"><path style="fill:none;stroke-width:10;stroke-linecap:butt;stroke-linejoin:round;stroke:rgb(95.289612%,96.469116%,90.19928%);stroke-opacity:1;stroke-miterlimit:10;" d="M 905.10153 5.001536 C 554.098415 219.899476 503.998224 136.800402 409.998502 345.799482 C 313.500007 560.299067 5.000169 437.300205 5.000169 732.798453 L 5.000169 336.601124 C 5.000169 299.099508 26.901649 265.002009 61.099827 249.49839 C 114.201764 225.500575 162.398702 191.499647 191.301575 127.099072 C 197.498209 113.301535 203.501701 100.799655 209.50117 89.299696 C 236.400196 37.401001 290.198248 5.001536 348.700108 5.001536 Z M 905.10153 5.001536 " transform="matrix(0.970789,0,0,0.970792,0.173235,0.00002)"/></g><path style="fill-rule:nonzero;fill:rgb(0%,29.019165%,67.83905%);fill-opacity:1;stroke-width:10;stroke-linecap:butt;stroke-linejoin:round;stroke:rgb(95.289612%,96.469116%,90.19928%);stroke-opacity:1;stroke-miterlimit:10;" d="M 905.100448 5.000695 C 554.100246 219.899612 504.000926 136.799197 409.999835 345.801206 C 313.500049 560.299124 4.999791 437.300473 4.999791 732.800323 L 4.999791 336.600355 C 4.999791 299.100736 26.90026 265.001004 61.099914 249.499784 C 114.199636 225.498847 162.400341 191.49998 191.300107 127.098942 C 197.500116 113.300125 203.500918 100.800252 209.499261 89.299188 C 236.399578 37.400483 290.200213 5.000695 348.700657 5.000695 Z M 905.100448 5.000695 " transform="matrix(1.588329,0,0,1.587829,-6.316315,-24.385559)"/><path style=" stroke:none;fill-rule:nonzero;fill:rgb(100%,8.628845%,8.628845%);fill-opacity:1;" d="M 1643.90625 687.78125 C 1489.863281 782.152344 1467.875 745.660156 1426.621094 837.441406 C 1384.269531 931.636719 1248.875 877.621094 1248.875 1007.390625 L 1248.875 833.402344 C 1248.875 816.933594 1258.488281 801.957031 1273.496094 795.152344 C 1296.800781 784.613281 1317.957031 769.679688 1330.636719 741.398438 C 1333.359375 735.339844 1335.992188 729.851562 1338.625 724.800781 C 1350.433594 702.007812 1374.042969 687.78125 1399.71875 687.78125 Z M 1643.90625 687.78125 "/><g clip-rule="nonzero" clip-path="url(#clip4)"><path style="fill:none;stroke-width:10;stroke-linecap:butt;stroke-linejoin:round;stroke:rgb(95.289612%,96.469116%,90.19928%);stroke-opacity:1;stroke-miterlimit:10;" d="M 905.099879 5.001065 C 554.103347 219.899198 504.001674 136.800627 410.002071 345.80127 C 313.501389 560.299121 4.996488 437.29687 4.996488 732.802929 L 4.996488 336.603677 C 4.996488 299.101689 26.90095 264.997651 61.097188 249.502285 C 114.198375 225.503148 162.404213 191.496957 191.295674 127.09601 C 197.499416 113.299619 203.498444 100.801921 209.497472 89.300481 C 236.40409 37.397232 290.199527 5.001065 348.703399 5.001065 Z M 905.099879 5.001065 " transform="matrix(0.438873,0,0,0.439143,1246.682176,685.585066)"/></g><path style=" stroke:none;fill-rule:nonzero;fill:rgb(100%,56.858826%,30.198669%);fill-opacity:1;" d="M 1015.007812 826.402344 C 1182.347656 723.949219 1206.230469 763.566406 1251.046875 663.925781 C 1297.050781 561.660156 1444.128906 620.300781 1444.128906 479.421875 L 1444.128906 668.3125 C 1444.128906 686.191406 1433.6875 702.445312 1417.382812 709.835938 C 1392.070312 721.277344 1369.089844 737.488281 1355.3125 768.191406 C 1352.355469 774.769531 1349.496094 780.730469 1346.632812 786.214844 C 1333.808594 810.957031 1308.160156 826.402344 1280.269531 826.402344 Z M 1015.007812 826.402344 "/><g clip-rule="nonzero" clip-path="url(#clip5)"><path style="fill:none;stroke-width:10;stroke-linecap:butt;stroke-linejoin:round;stroke:rgb(95.289612%,96.469116%,90.19928%);stroke-opacity:1;stroke-miterlimit:10;" d="M 905.097656 5.002623 C 554.096493 219.899335 504.00146 136.801789 409.997484 345.799247 C 313.502685 560.302675 5.001184 437.30323 5.001184 732.7985 L 5.001184 336.598049 C 5.001184 299.09682 26.902398 265.004048 61.10205 249.502119 C 114.195902 225.503626 162.398237 191.500982 191.296696 127.100793 C 197.499173 113.303094 203.496812 100.799953 209.502644 89.296407 C 236.40189 37.399359 290.200383 5.002623 348.701943 5.002623 Z M 905.097656 5.002623 " transform="matrix(-0.47675,-0.000000000000000058,0.000000000000000058,-0.476755,1446.513221,828.78737)"/></g><path style=" stroke:none;fill-rule:nonzero;fill:rgb(0%,29.019165%,67.83905%);fill-opacity:1;" d="M -21.003906 820.71875 C 545.460938 474.035156 626.316406 608.09375 778.019531 270.925781 C 933.753906 -75.113281 1431.632812 123.316406 1431.632812 -353.398438 L 1431.632812 285.769531 C 1431.632812 346.265625 1396.289062 401.277344 1341.09375 426.28125 C 1255.398438 465 1177.609375 519.851562 1130.96875 623.742188 C 1120.964844 646.007812 1111.28125 666.171875 1101.597656 684.722656 C 1058.183594 768.449219 971.359375 820.71875 876.949219 820.71875 Z M -21.003906 820.71875 "/><g clip-rule="nonzero" clip-path="url(#clip6)"><path style="fill:none;stroke-width:10;stroke-linecap:butt;stroke-linejoin:round;stroke:rgb(95.289612%,96.469116%,90.19928%);stroke-opacity:1;stroke-miterlimit:10;" d="M 905.100823 5.00084 C 554.100368 219.899553 503.999631 136.800671 409.99933 345.800935 C 313.501132 560.300123 4.998805 437.299538 4.998805 732.800706 L 4.998805 336.599741 C 4.998805 299.100036 26.898968 264.999929 61.099819 249.500761 C 114.199485 225.500174 162.400175 191.499344 191.300257 127.100676 C 197.49901 113.298886 203.499287 100.799791 209.499563 89.300721 C 236.40036 37.401147 290.199533 5.00084 348.699206 5.00084 Z M 905.100823 5.00084 " transform="matrix(-1.613858,-0.000000000000000198,0.000000000000000198,-1.613242,1439.700174,828.786314)"/></g><path style=" stroke:none;fill-rule:nonzero;fill:rgb(49.409485%,85.099792%,34.118652%);fill-opacity:1;" d="M 621.441406 805.441406 C 941.378906 609.488281 987.042969 685.261719 1072.722656 494.6875 C 1160.683594 299.097656 1441.878906 411.253906 1441.878906 141.808594 L 1441.878906 503.074219 C 1441.878906 537.269531 1421.917969 568.363281 1390.746094 582.496094 C 1342.34375 604.378906 1298.410156 635.382812 1272.066406 694.105469 C 1266.417969 706.6875 1260.949219 718.085938 1255.480469 728.570312 C 1230.960938 775.894531 1181.921875 805.441406 1128.597656 805.441406 Z M 621.441406 805.441406 "/><g clip-rule="nonzero" clip-path="url(#clip7)"><path style="fill:none;stroke-width:10;stroke-linecap:butt;stroke-linejoin:round;stroke:rgb(95.289612%,96.469116%,90.19928%);stroke-opacity:1;stroke-miterlimit:10;" d="M 905.100965 4.998064 C 554.098264 219.898426 504.000325 136.79825 410.001335 345.799604 C 313.499592 560.301558 5.000856 437.300618 5.000856 732.799325 L 5.000856 336.601951 C 5.000856 299.100202 26.899955 264.999913 61.098548 249.500561 C 114.200649 225.50184 162.400094 191.500082 191.301762 127.099374 C 197.49865 113.300752 203.498403 100.800169 209.498156 89.302031 C 236.398478 37.401906 290.199122 4.998064 348.701 4.998064 Z M 905.100965 4.998064 " transform="matrix(-0.911496,-0.000000000000000112,0.000000000000000112,-0.911832,1446.437165,809.998803)"/></g></g></svg>